<?xml version="1.0" standalone="no"?>
<!DOCTYPE svg PUBLIC "-//W3C//DTD SVG 20010904//EN"
 "http://www.w3.org/TR/2001/REC-SVG-20010904/DTD/svg10.dtd">
<svg version="1.0" xmlns="http://www.w3.org/2000/svg"
 width="2048.000000pt" height="167.000000pt" viewBox="0 0 2048.000000 167.000000"
 preserveAspectRatio="xMidYMid meet">
<metadata>
Created by potrace 1.15, written by Peter Selinger 2001-2017
</metadata>
<g transform="translate(0.000000,167.000000) scale(0.100000,-0.100000)"
fill="#000000" stroke="none">
<path d="M88 1606 c-17 -12 -18 -61 -18 -775 l0 -761 10175 0 10175 0 0 765 0
765 -24 0 c-13 0 -27 6 -30 13 -5 10 -7 10 -12 0 -8 -18 -155 -18 -173 0 -11
9 -14 9 -18 0 -6 -16 -163 -18 -163 -3 0 6 -7 10 -15 10 -8 0 -15 -4 -15 -10
0 -15 -157 -13 -163 3 -4 9 -7 9 -18 -1 -18 -17 -165 -17 -173 0 -5 10 -7 10
-12 1 -7 -16 -164 -18 -164 -3 0 6 -7 10 -15 10 -8 0 -15 -4 -15 -10 0 -6 -33
-10 -80 -10 -47 0 -80 4 -80 10 0 6 -7 10 -15 10 -8 0 -15 -4 -15 -10 0 -6
-33 -10 -80 -10 -47 0 -80 4 -80 10 0 6 -7 10 -15 10 -8 0 -15 -4 -15 -10 0
-15 -157 -13 -164 3 -5 10 -7 10 -12 0 -7 -16 -164 -18 -164 -3 0 6 -9 10 -20
10 -11 0 -20 -4 -20 -10 0 -6 -32 -10 -75 -10 -43 0 -75 4 -75 10 0 6 -7 10
-15 10 -8 0 -15 -4 -15 -10 0 -6 -33 -10 -80 -10 -47 0 -80 4 -80 10 0 6 -7
10 -15 10 -8 0 -15 -4 -15 -10 0 -15 -157 -13 -164 2 -5 10 -7 11 -12 1 -4 -9
-31 -13 -83 -13 -48 0 -82 5 -90 13 -11 9 -14 9 -18 0 -6 -16 -163 -18 -163
-3 0 6 -7 10 -15 10 -8 0 -15 -4 -15 -10 0 -6 -33 -10 -80 -10 -47 0 -80 4
-80 10 0 6 -7 10 -15 10 -8 0 -15 -4 -15 -10 0 -15 -157 -13 -164 3 -5 9 -7 9
-12 0 -8 -18 -155 -18 -173 0 -11 9 -14 9 -18 0 -6 -16 -163 -18 -163 -3 0 6
-7 10 -15 10 -8 0 -15 -4 -15 -10 0 -6 -33 -10 -80 -10 -47 0 -80 4 -80 10 0
6 -7 10 -15 10 -8 0 -15 -4 -15 -10 0 -15 -157 -13 -164 3 -5 9 -7 9 -12 0 -8
-18 -170 -18 -178 0 -5 9 -7 9 -12 0 -7 -16 -164 -18 -164 -3 0 6 -7 10 -15
10 -8 0 -15 -4 -15 -10 0 -6 -33 -10 -80 -10 -47 0 -80 4 -80 10 0 6 -7 10
-15 10 -8 0 -15 -4 -15 -10 0 -15 -157 -13 -163 2 -4 11 -7 11 -18 0 -18 -17
-165 -17 -173 0 -5 10 -7 10 -12 1 -7 -16 -164 -18 -164 -3 0 6 -7 10 -15 10
-8 0 -15 -4 -15 -10 0 -6 -33 -10 -80 -10 -47 0 -80 4 -80 10 0 6 -7 10 -15
10 -8 0 -15 -4 -15 -10 0 -15 -157 -13 -163 3 -4 10 -7 10 -18 0 -18 -18 -165
-18 -173 -1 -5 10 -7 10 -12 1 -7 -16 -164 -18 -164 -3 0 6 -7 10 -15 10 -8 0
-15 -4 -15 -10 0 -6 -33 -10 -80 -10 -47 0 -80 4 -80 10 0 6 -7 10 -15 10 -8
0 -15 -4 -15 -10 0 -15 -157 -13 -163 3 -4 10 -7 9 -18 -1 -18 -17 -165 -17
-173 1 -5 9 -7 9 -12 0 -7 -16 -164 -18 -164 -3 0 6 -7 10 -15 10 -8 0 -15 -4
-15 -10 0 -6 -33 -10 -80 -10 -47 0 -80 4 -80 10 0 6 -7 10 -15 10 -8 0 -15
-4 -15 -10 0 -6 -33 -10 -80 -10 -47 0 -80 4 -80 10 0 6 -7 10 -15 10 -8 0
-15 -4 -15 -10 0 -15 -157 -13 -164 2 -5 10 -7 10 -12 1 -7 -16 -164 -18 -164
-3 0 6 -7 10 -15 10 -8 0 -15 -4 -15 -10 0 -6 -33 -10 -80 -10 -47 0 -80 4
-80 10 0 6 -7 10 -15 10 -8 0 -15 -4 -15 -10 0 -6 -33 -10 -80 -10 -47 0 -80
4 -80 10 0 6 -7 10 -15 10 -8 0 -15 -4 -15 -10 0 -15 -157 -13 -164 3 -5 9 -7
9 -12 0 -7 -16 -164 -18 -164 -3 0 6 -7 10 -15 10 -8 0 -15 -4 -15 -10 0 -6
-33 -10 -80 -10 -47 0 -80 4 -80 10 0 6 -7 10 -15 10 -8 0 -15 -4 -15 -10 0
-6 -33 -10 -80 -10 -47 0 -80 4 -80 10 0 6 -7 10 -15 10 -8 0 -15 -4 -15 -10
0 -15 -157 -13 -164 3 -5 10 -7 10 -12 0 -8 -18 -155 -18 -173 0 -11 10 -14
10 -18 0 -6 -16 -163 -18 -163 -3 0 6 -7 10 -15 10 -8 0 -15 -4 -15 -10 0 -6
-33 -10 -80 -10 -47 0 -80 4 -80 10 0 6 -7 10 -15 10 -8 0 -15 -4 -15 -10 0
-15 -157 -13 -164 3 -5 10 -7 10 -12 0 -8 -18 -155 -18 -173 0 -11 10 -14 10
-18 0 -6 -16 -163 -18 -163 -3 0 6 -7 10 -15 10 -8 0 -15 -4 -15 -10 0 -6 -33
-10 -80 -10 -47 0 -80 4 -80 10 0 6 -7 10 -15 10 -8 0 -15 -4 -15 -10 0 -15
-157 -13 -164 3 -5 9 -7 9 -12 0 -8 -18 -155 -18 -173 0 -11 10 -14 10 -18 0
-6 -16 -163 -18 -163 -3 0 6 -7 10 -15 10 -8 0 -15 -4 -15 -10 0 -6 -33 -10
-80 -10 -47 0 -80 4 -80 10 0 6 -7 10 -15 10 -8 0 -15 -4 -15 -10 0 -15 -157
-13 -163 3 -4 9 -7 9 -18 0 -18 -18 -165 -18 -173 0 -5 10 -7 10 -12 -1 -7
-15 -164 -17 -164 -2 0 6 -7 10 -15 10 -8 0 -15 -4 -15 -10 0 -6 -33 -10 -80
-10 -47 0 -80 4 -80 10 0 6 -7 10 -15 10 -8 0 -15 -4 -15 -10 0 -15 -157 -13
-163 3 -4 10 -7 9 -18 0 -18 -18 -165 -18 -173 0 -5 10 -7 10 -12 0 -7 -16
-164 -18 -164 -3 0 6 -7 10 -15 10 -8 0 -15 -4 -15 -10 0 -6 -33 -10 -80 -10
-47 0 -80 4 -80 10 0 6 -7 10 -15 10 -8 0 -15 -4 -15 -10 0 -15 -157 -13 -163
2 -4 11 -7 11 -18 1 -18 -18 -165 -18 -173 -1 -5 10 -7 10 -12 1 -7 -16 -164
-18 -164 -3 0 6 -7 10 -15 10 -8 0 -15 -4 -15 -10 0 -6 -33 -10 -80 -10 -47 0
-80 4 -80 10 0 6 -7 10 -15 10 -8 0 -15 -4 -15 -10 0 -6 -33 -10 -80 -10 -47
0 -80 4 -80 10 0 6 -7 10 -15 10 -8 0 -15 -4 -15 -10 0 -15 -157 -13 -164 3
-5 10 -7 10 -12 0 -7 -16 -164 -18 -164 -3 0 6 -7 10 -15 10 -8 0 -15 -4 -15
-10 0 -6 -33 -10 -80 -10 -47 0 -80 4 -80 10 0 6 -7 10 -15 10 -8 0 -15 -4
-15 -10 0 -6 -33 -10 -80 -10 -47 0 -80 4 -80 10 0 6 -7 10 -15 10 -8 0 -15
-4 -15 -10 0 -15 -157 -13 -164 3 -5 10 -7 10 -12 0 -7 -16 -164 -18 -164 -3
0 6 -7 10 -15 10 -8 0 -15 -4 -15 -10 0 -6 -33 -10 -80 -10 -47 0 -80 4 -80
10 0 6 -7 10 -15 10 -8 0 -15 -4 -15 -10 0 -6 -33 -10 -80 -10 -47 0 -80 4
-80 10 0 6 -7 10 -15 10 -8 0 -15 -4 -15 -10 0 -15 -157 -13 -164 3 -5 10 -7
10 -12 -1 -7 -15 -164 -17 -164 -2 0 6 -7 10 -15 10 -8 0 -15 -4 -15 -10 0 -6
-33 -10 -80 -10 -47 0 -80 4 -80 10 0 6 -7 10 -15 10 -8 0 -15 -4 -15 -10 0
-6 -33 -10 -80 -10 -47 0 -80 4 -80 10 0 6 -7 10 -15 10 -8 0 -15 -4 -15 -10
0 -15 -157 -13 -164 3 -5 10 -7 10 -12 0 -4 -9 -31 -13 -83 -13 -48 0 -82 5
-90 13 -11 10 -14 10 -18 0 -6 -16 -163 -18 -163 -3 0 6 -7 10 -15 10 -8 0
-15 -4 -15 -10 0 -6 -33 -10 -80 -10 -47 0 -80 4 -80 10 0 6 -7 10 -15 10 -8
0 -15 -4 -15 -10 0 -15 -157 -13 -164 3 -5 10 -7 10 -12 0 -4 -9 -31 -13 -83
-13 -48 0 -82 5 -90 13 -11 10 -14 10 -18 0 -6 -16 -163 -18 -163 -3 0 6 -7
10 -15 10 -8 0 -15 -4 -15 -10 0 -6 -33 -10 -80 -10 -47 0 -80 4 -80 10 0 6
-7 10 -15 10 -8 0 -15 -4 -15 -10 0 -15 -157 -13 -164 3 -5 10 -7 10 -12 0 -8
-18 -155 -18 -173 0 -11 10 -14 10 -18 0 -6 -16 -163 -18 -163 -3 0 6 -7 10
-15 10 -8 0 -15 -4 -15 -10 0 -6 -33 -10 -80 -10 -47 0 -80 4 -80 10 0 6 -7
10 -15 10 -8 0 -15 -4 -15 -10 0 -15 -157 -13 -163 3 -4 10 -7 10 -18 0 -8 -8
-42 -13 -90 -13 -52 0 -79 4 -83 13 -5 10 -7 10 -12 0 -7 -16 -164 -18 -164
-3 0 6 -7 10 -15 10 -8 0 -15 -4 -15 -10 0 -6 -33 -10 -80 -10 -47 0 -80 4
-80 10 0 6 -7 10 -15 10 -8 0 -15 -4 -15 -10 0 -15 -157 -13 -163 3 -4 10 -7
10 -18 0 -8 -8 -42 -13 -90 -13 -52 0 -79 4 -83 13 -5 10 -7 10 -12 0 -7 -16
-164 -18 -164 -3 0 6 -7 10 -15 10 -8 0 -15 -4 -15 -10 0 -6 -33 -10 -80 -10
-47 0 -80 4 -80 10 0 6 -7 10 -15 10 -8 0 -15 -4 -15 -10 0 -15 -157 -13 -163
3 -4 10 -7 10 -18 0 -8 -8 -42 -13 -90 -13 -52 0 -79 4 -83 13 -5 10 -7 10
-12 0 -7 -16 -164 -18 -164 -3 0 6 -7 10 -15 10 -8 0 -15 -4 -15 -10 0 -6 -33
-10 -80 -10 -47 0 -80 4 -80 10 0 6 -7 10 -15 10 -8 0 -15 -4 -15 -10 0 -15
-143 -13 -159 3 -11 10 -14 10 -18 0 -6 -16 -163 -18 -163 -3 0 6 -7 10 -15
10 -8 0 -15 -4 -15 -10 0 -6 -33 -10 -80 -10 -47 0 -80 4 -80 10 0 13 -11 12
-32 -4z m17 -316 c13 0 15 25 15 150 l0 150 80 0 80 0 0 -150 c0 -127 2 -150
15 -150 13 0 15 23 15 150 l0 150 80 0 80 0 0 -150 c0 -127 2 -150 15 -150 13
0 15 23 15 150 l0 150 75 0 75 0 0 -150 c0 -127 2 -150 15 -150 13 0 15 23 15
150 l0 150 80 0 80 0 0 -755 0 -755 -80 0 -80 0 0 155 c0 131 -2 155 -15 155
-13 0 -15 -24 -15 -155 l0 -155 -75 0 -74 0 -3 152 c-2 110 -6 152 -15 156
-10 3 -13 -32 -13 -152 l0 -156 -80 0 -80 0 0 155 c0 131 -2 155 -15 155 -13
0 -15 -24 -15 -155 l0 -155 -80 0 -80 0 0 155 c0 130 -2 155 -15 155 -12 0
-15 -27 -18 -157 -1 -87 -3 184 -3 602 0 418 2 691 3 608 3 -127 6 -153 18
-153z m925 150 c0 -93 4 -150 10 -150 6 0 10 57 10 150 l0 150 80 0 80 0 0
-150 c0 -127 2 -150 15 -150 13 0 15 23 15 150 l0 150 80 0 80 0 0 -150 c0
-127 2 -150 15 -150 13 0 15 23 15 150 l0 150 80 0 80 0 0 -150 c0 -127 2
-150 15 -150 13 0 15 23 15 150 l0 150 80 0 80 0 0 -290 c0 -187 4 -290 10
-290 6 0 10 103 10 290 l0 290 80 0 80 0 0 -150 c0 -127 2 -150 15 -150 13 0
15 23 15 150 l0 150 80 0 80 0 0 -150 c0 -127 2 -150 15 -150 13 0 15 23 15
150 l0 150 80 0 80 0 0 -150 c0 -127 2 -150 15 -150 13 0 15 23 15 150 l0 150
80 0 80 0 0 -150 c0 -93 4 -150 10 -150 6 0 10 57 10 150 l0 150 80 0 80 0 0
-755 0 -755 -80 0 -80 0 0 155 c0 97 -4 155 -10 155 -6 0 -10 -58 -10 -155 l0
-155 -80 0 -80 0 0 155 c0 131 -2 155 -15 155 -13 0 -15 -24 -15 -155 l0 -155
-80 0 -80 0 0 155 c0 131 -2 155 -15 155 -13 0 -15 -24 -15 -155 l0 -155 -80
0 -80 0 0 155 c0 131 -2 155 -15 155 -13 0 -15 -24 -15 -155 l0 -155 -80 0
-80 0 0 300 c0 193 -4 300 -10 300 -6 0 -10 -107 -10 -300 l0 -300 -80 0 -80
0 0 155 c0 131 -2 155 -15 155 -13 0 -15 -24 -15 -155 l0 -155 -80 0 -80 0 0
155 c0 131 -2 155 -15 155 -13 0 -15 -24 -15 -155 l0 -155 -80 0 -80 0 0 155
c0 131 -2 155 -15 155 -13 0 -15 -24 -15 -155 l0 -155 -80 0 -80 0 0 155 c0
97 -4 155 -10 155 -6 0 -10 -58 -10 -155 l0 -155 -80 0 -80 0 0 755 0 755 80
0 80 0 0 -150z m1870 0 c0 -127 2 -150 15 -150 13 0 15 23 15 150 l0 150 80 0
80 0 0 -150 c0 -127 2 -150 15 -150 13 0 15 23 15 150 l0 150 80 0 80 0 0
-150 c0 -127 2 -150 15 -150 13 0 15 23 15 150 l0 150 80 0 80 0 0 -150 c0
-93 4 -150 10 -150 6 0 10 57 10 150 l0 150 80 0 80 0 0 -290 c0 -251 2 -290
15 -290 13 0 15 39 15 290 l0 290 80 0 80 0 0 -150 c0 -127 2 -150 15 -150 13
0 15 23 15 150 l0 150 80 0 80 0 0 -150 c0 -127 2 -150 15 -150 13 0 15 23 15
150 l0 150 80 0 80 0 0 -150 c0 -93 4 -150 10 -150 6 0 10 57 10 150 l0 150
80 0 80 0 0 -150 c0 -127 2 -150 15 -150 13 0 15 23 15 150 l0 150 80 0 80 0
0 -755 0 -755 -80 0 -80 0 0 155 c0 131 -2 155 -15 155 -13 0 -15 -24 -15
-155 l0 -155 -80 0 -80 0 0 155 c0 131 -2 155 -15 155 -13 0 -15 -24 -15 -155
l0 -155 -80 0 -80 0 0 155 c0 97 -4 155 -10 155 -6 0 -10 -58 -10 -155 l0
-155 -80 0 -80 0 0 155 c0 131 -2 155 -15 155 -13 0 -15 -24 -15 -155 l0 -155
-80 0 -80 0 0 300 c0 260 -2 300 -15 300 -13 0 -15 -40 -15 -300 l0 -300 -80
0 -80 0 0 155 c0 131 -2 155 -15 155 -13 0 -15 -24 -15 -155 l0 -155 -80 0
-80 0 0 155 c0 97 -4 155 -10 155 -6 0 -10 -58 -10 -155 l0 -155 -80 0 -80 0
0 155 c0 131 -2 155 -15 155 -13 0 -15 -24 -15 -155 l0 -155 -80 0 -80 0 0
155 c0 131 -2 155 -15 155 -13 0 -15 -24 -15 -155 l0 -155 -80 0 -80 0 -2 423
c-2 232 -2 572 0 755 l2 332 80 0 80 0 0 -150z m1880 0 c0 -127 2 -150 15
-150 13 0 15 23 15 150 l0 150 80 0 80 0 0 -150 c0 -93 4 -150 10 -150 6 0 10
57 10 150 l0 150 80 0 80 0 0 -150 c0 -127 2 -150 15 -150 13 0 15 23 15 150
l0 150 80 0 80 0 0 -150 c0 -127 2 -150 15 -150 13 0 15 23 15 150 l0 150 80
0 80 0 0 -290 c0 -251 2 -290 15 -290 13 0 15 39 15 290 l0 290 80 0 80 0 0
-150 c0 -93 4 -150 10 -150 6 0 10 57 10 150 l0 150 80 0 80 0 0 -150 c0 -127
2 -150 15 -150 13 0 15 23 15 150 l0 150 80 0 80 0 0 -150 c0 -127 2 -150 15
-150 13 0 15 23 15 150 l0 150 80 0 80 0 0 -150 c0 -127 2 -150 15 -150 13 0
15 23 15 150 l0 150 82 0 81 0 -6 -377 c-4 -207 -7 -547 -7 -755 l0 -378 -80
0 -80 0 0 155 c0 97 -4 155 -10 155 -6 0 -10 -58 -10 -155 l0 -155 -80 0 -80
0 0 155 c0 131 -2 155 -15 155 -13 0 -15 -24 -15 -155 l0 -155 -80 0 -80 0 0
155 c0 131 -2 155 -15 155 -13 0 -15 -24 -15 -155 l0 -155 -80 0 -80 0 0 155
c0 131 -2 155 -15 155 -13 0 -15 -24 -15 -155 l0 -155 -80 0 -80 0 0 300 c0
193 -4 300 -10 300 -6 0 -10 -107 -10 -300 l0 -300 -80 0 -80 0 0 155 c0 131
-2 155 -15 155 -13 0 -15 -24 -15 -155 l0 -155 -80 0 -80 0 0 155 c0 131 -2
155 -15 155 -13 0 -15 -24 -15 -155 l0 -155 -80 0 -80 0 0 155 c0 131 -2 155
-15 155 -13 0 -15 -24 -15 -155 l0 -155 -80 0 -80 0 0 155 c0 97 -4 155 -10
155 -6 0 -10 -58 -10 -155 l0 -155 -80 0 -80 0 0 755 0 755 80 0 80 0 0 -150z
m1870 0 c0 -127 2 -150 15 -150 13 0 15 23 15 150 l0 150 80 0 80 0 0 -150 c0
-127 2 -150 15 -150 13 0 15 23 15 150 l0 150 80 0 80 0 0 -150 c0 -127 2
-150 15 -150 13 0 15 23 15 150 l0 150 80 0 80 0 0 -150 c0 -93 4 -150 10
-150 6 0 10 57 10 150 l0 150 80 0 80 0 0 -290 c0 -251 2 -290 15 -290 13 0
15 39 15 290 l0 290 80 0 80 0 0 -150 c0 -127 2 -150 15 -150 13 0 15 23 15
150 l0 150 80 0 80 0 0 -150 c0 -127 2 -150 15 -150 13 0 15 23 15 150 l0 150
80 0 80 0 0 -150 c0 -93 4 -150 10 -150 6 0 10 57 10 150 l0 150 80 0 80 0 0
-150 c0 -127 2 -150 15 -150 13 0 15 23 15 150 l0 150 80 0 80 0 0 -755 0
-755 -80 0 -80 0 0 155 c0 131 -2 155 -15 155 -13 0 -15 -24 -15 -155 l0 -155
-80 0 -80 0 0 155 c0 97 -4 155 -10 155 -6 0 -10 -58 -10 -155 l0 -155 -80 0
-80 0 0 155 c0 131 -2 155 -15 155 -13 0 -15 -24 -15 -155 l0 -155 -80 0 -80
0 0 155 c0 131 -2 155 -15 155 -13 0 -15 -24 -15 -155 l0 -155 -80 0 -80 0 0
300 c0 260 -2 300 -15 300 -13 0 -15 -40 -15 -300 l0 -300 -80 0 -80 0 0 155
c0 97 -4 155 -10 155 -6 0 -10 -58 -10 -155 l0 -155 -80 0 -79 0 -3 152 c-2
110 -6 152 -15 156 -10 3 -13 -32 -13 -152 l0 -156 -80 0 -80 0 0 155 c0 131
-2 155 -15 155 -13 0 -15 -24 -15 -155 l0 -155 -80 0 -80 0 0 155 c0 131 -2
155 -15 155 -13 0 -15 -24 -15 -155 l0 -155 -80 0 -80 0 0 755 0 755 80 0 80
0 0 -150z m1880 0 c0 -127 2 -150 15 -150 13 0 15 23 15 150 l0 150 80 0 80 0
0 -150 c0 -93 4 -150 10 -150 6 0 10 57 10 150 l0 150 80 0 80 0 0 -150 c0
-127 2 -150 15 -150 13 0 15 23 15 150 l0 150 80 0 80 0 0 -150 c0 -127 2
-150 15 -150 13 0 15 23 15 150 l0 150 80 0 80 0 0 -290 c0 -251 2 -290 15
-290 13 0 15 39 15 290 l0 290 80 0 80 0 0 -150 c0 -93 4 -150 10 -150 6 0 10
57 10 150 l0 150 80 0 80 0 0 -150 c0 -127 2 -150 15 -150 13 0 15 23 15 150
l0 150 80 0 80 0 0 -150 c0 -127 2 -150 15 -150 13 0 15 23 15 150 l0 150 80
0 80 0 0 -150 c0 -127 2 -150 15 -150 13 0 15 23 15 150 l0 150 80 0 80 0 0
-755 0 -755 -80 0 -80 0 0 155 c0 131 -2 155 -15 155 -13 0 -15 -24 -15 -155
l0 -155 -80 0 -80 0 0 155 c0 131 -2 155 -15 155 -13 0 -15 -24 -15 -155 l0
-155 -80 0 -80 0 0 155 c0 131 -2 155 -15 155 -13 0 -15 -24 -15 -155 l0 -155
-80 0 -80 0 0 155 c0 97 -4 155 -10 155 -6 0 -10 -58 -10 -155 l0 -155 -80 0
-80 0 0 300 c0 260 -2 300 -15 300 -13 0 -15 -40 -15 -300 l0 -300 -80 0 -80
0 0 155 c0 131 -2 155 -15 155 -13 0 -15 -24 -15 -155 l0 -155 -80 0 -80 0 0
155 c0 131 -2 155 -15 155 -13 0 -15 -24 -15 -155 l0 -155 -80 0 -80 0 0 155
c0 97 -4 155 -10 155 -6 0 -10 -58 -10 -155 l0 -155 -80 0 -80 0 0 155 c0 131
-2 155 -15 155 -13 0 -15 -24 -15 -155 l0 -155 -80 0 -80 0 0 755 0 755 80 0
80 0 0 -150z m1880 0 c0 -93 4 -150 10 -150 6 0 10 57 10 150 l0 150 80 0 80
0 0 -150 c0 -127 2 -150 15 -150 13 0 15 23 15 150 l0 150 80 0 80 0 0 -150
c0 -127 2 -150 15 -150 13 0 15 23 15 150 l0 150 80 0 80 0 0 -150 c0 -127 2
-150 15 -150 13 0 15 23 15 150 l0 150 80 0 80 0 0 -290 c0 -187 4 -290 10
-290 6 0 10 103 10 290 l0 290 80 0 80 0 0 -150 c0 -127 2 -150 15 -150 13 0
15 23 15 150 l0 150 80 0 80 0 0 -150 c0 -127 2 -150 15 -150 13 0 15 23 15
150 l0 150 80 0 80 0 0 -150 c0 -127 2 -150 15 -150 13 0 15 23 15 150 l0 150
80 0 80 0 0 -150 c0 -93 4 -150 10 -150 6 0 10 57 10 150 l0 150 80 0 80 0 0
-755 0 -755 -80 0 -80 0 0 155 c0 131 -2 155 -15 155 -13 0 -15 -24 -15 -155
l0 -155 -80 0 -80 0 0 155 c0 97 -4 155 -10 155 -6 0 -10 -58 -10 -155 l0
-155 -80 0 -80 0 0 155 c0 131 -2 155 -15 155 -13 0 -15 -24 -15 -155 l0 -155
-80 0 -80 0 0 155 c0 131 -2 155 -15 155 -13 0 -15 -24 -15 -155 l0 -155 -80
0 -80 0 0 300 c0 260 -2 300 -15 300 -13 0 -15 -40 -15 -300 l0 -300 -80 0
-80 0 0 155 c0 97 -4 155 -10 155 -6 0 -10 -58 -10 -155 l0 -155 -80 0 -80 0
0 155 c0 131 -2 155 -15 155 -13 0 -15 -24 -15 -155 l0 -155 -80 0 -80 0 0
155 c0 131 -2 155 -15 155 -13 0 -15 -24 -15 -155 l0 -155 -80 0 -80 0 0 155
c0 131 -2 155 -15 155 -13 0 -15 -24 -15 -155 l0 -155 -81 0 -82 0 6 418 c4
229 7 569 7 755 l0 337 80 0 80 0 0 -150z m1870 0 c0 -127 2 -150 15 -150 13
0 15 23 15 150 l0 150 80 0 80 0 0 -150 c0 -127 2 -150 15 -150 13 0 15 23 15
150 l0 150 80 0 80 0 0 -150 c0 -93 4 -150 10 -150 6 0 10 57 10 150 l0 150
80 0 80 0 0 -150 c0 -127 2 -150 15 -150 13 0 15 23 15 150 l0 150 80 0 80 0
0 -290 c0 -251 2 -290 15 -290 13 0 15 39 15 290 l0 290 80 0 80 0 0 -150 c0
-127 2 -150 15 -150 13 0 15 23 15 150 l0 150 80 0 80 0 0 -150 c0 -93 4 -150
10 -150 6 0 10 57 10 150 l0 150 80 0 80 0 0 -150 c0 -127 2 -150 15 -150 13
0 15 23 15 150 l0 150 80 0 80 0 0 -150 c0 -127 2 -150 15 -150 13 0 15 23 15
150 l0 150 80 0 80 0 0 -755 0 -755 -80 0 -80 0 0 155 c0 131 -2 155 -15 155
-13 0 -15 -24 -15 -155 l0 -155 -80 0 -80 0 0 155 c0 131 -2 155 -15 155 -13
0 -15 -24 -15 -155 l0 -155 -80 0 -80 0 0 155 c0 131 -2 155 -15 155 -13 0
-15 -24 -15 -155 l0 -155 -80 0 -80 0 0 155 c0 97 -4 155 -10 155 -6 0 -10
-58 -10 -155 l0 -155 -80 0 -80 0 0 300 c0 260 -2 300 -15 300 -13 0 -15 -40
-15 -300 l0 -300 -80 0 -80 0 0 155 c0 131 -2 155 -15 155 -13 0 -15 -24 -15
-155 l0 -155 -80 0 -80 0 0 155 c0 131 -2 155 -15 155 -13 0 -15 -24 -15 -155
l0 -155 -80 0 -80 0 0 155 c0 97 -4 155 -10 155 -6 0 -10 -58 -10 -155 l0
-155 -80 0 -80 0 0 155 c0 131 -2 155 -15 155 -13 0 -15 -24 -15 -155 l0 -155
-80 0 -80 0 0 755 0 755 80 0 80 0 0 -150z m1880 0 c0 -93 4 -150 10 -150 6 0
10 57 10 150 l0 150 80 0 80 0 0 -150 c0 -127 2 -150 15 -150 13 0 15 23 15
150 l0 150 80 0 80 0 0 -150 c0 -127 2 -150 15 -150 13 0 15 23 15 150 l0 150
80 0 80 0 0 -150 c0 -127 2 -150 15 -150 13 0 15 23 15 150 l0 150 80 0 80 0
0 -290 c0 -187 4 -290 10 -290 6 0 10 103 10 290 l0 290 80 0 80 0 0 -150 c0
-127 2 -150 15 -150 13 0 15 23 15 150 l0 150 80 0 80 0 0 -150 c0 -127 2
-150 15 -150 13 0 15 23 15 150 l0 150 80 0 80 0 0 -150 c0 -127 2 -150 15
-150 13 0 15 23 15 150 l0 150 80 0 80 0 0 -150 c0 -93 4 -150 10 -150 6 0 10
57 10 150 l0 150 80 0 80 0 0 -755 0 -755 -80 0 -80 0 0 155 c0 97 -4 155 -10
155 -6 0 -10 -58 -10 -155 l0 -155 -80 0 -80 0 0 155 c0 131 -2 155 -15 155
-13 0 -15 -24 -15 -155 l0 -155 -80 0 -80 0 0 155 c0 131 -2 155 -15 155 -13
0 -15 -24 -15 -155 l0 -155 -80 0 -80 0 0 155 c0 131 -2 155 -15 155 -13 0
-15 -24 -15 -155 l0 -155 -80 0 -80 0 0 300 c0 193 -4 300 -10 300 -6 0 -10
-107 -10 -300 l0 -300 -80 0 -80 0 0 155 c0 131 -2 155 -15 155 -13 0 -15 -24
-15 -155 l0 -155 -80 0 -80 0 0 155 c0 131 -2 155 -15 155 -13 0 -15 -24 -15
-155 l0 -155 -80 0 -80 0 0 155 c0 131 -2 155 -15 155 -13 0 -15 -24 -15 -155
l0 -155 -80 0 -80 0 0 155 c0 97 -4 155 -10 155 -6 0 -10 -58 -10 -155 l0
-155 -80 0 -80 0 0 414 c0 322 -3 415 -12 419 -10 4 -10 7 0 18 9 10 12 91 12
336 l0 323 80 0 80 0 0 -150z m1870 0 c0 -127 2 -150 15 -150 13 0 15 23 15
150 l0 150 80 0 80 0 0 -150 c0 -127 2 -150 15 -150 13 0 15 23 15 150 l0 150
80 0 80 0 0 -150 c0 -93 4 -150 10 -150 6 0 10 57 10 150 l0 150 85 0 85 0 0
-150 c0 -93 4 -150 10 -150 6 0 10 57 10 150 l0 150 80 0 80 0 0 -290 c0 -251
2 -290 15 -290 13 0 15 39 15 290 l0 290 80 0 80 0 0 -150 c0 -127 2 -150 15
-150 13 0 15 23 15 150 l0 150 80 0 80 0 0 -150 c0 -127 2 -150 15 -150 13 0
15 23 15 150 l0 150 80 0 80 0 0 -150 c0 -93 4 -150 10 -150 6 0 10 57 10 150
l0 150 80 0 80 0 0 -150 c0 -127 2 -150 15 -150 13 0 15 23 15 150 l0 150 80
0 80 0 0 -755 0 -755 -80 0 -80 0 0 155 c0 131 -2 155 -15 155 -13 0 -15 -24
-15 -155 l0 -155 -80 0 -80 0 0 155 c0 131 -2 155 -15 155 -13 0 -15 -24 -15
-155 l0 -155 -80 0 -80 0 0 155 c0 97 -4 155 -10 155 -6 0 -10 -58 -10 -155
l0 -155 -80 0 -80 0 0 155 c0 131 -2 155 -15 155 -13 0 -15 -24 -15 -155 l0
-155 -80 0 -80 0 0 300 c0 260 -2 300 -15 300 -13 0 -15 -40 -15 -300 l0 -300
-80 0 -80 0 0 155 c0 131 -2 155 -15 155 -13 0 -15 -24 -15 -155 l0 -155 -80
0 -80 0 0 155 c0 97 -4 155 -10 155 -6 0 -10 -58 -10 -155 l0 -155 -80 0 -80
0 0 155 c0 131 -2 155 -15 155 -13 0 -15 -24 -15 -155 l0 -155 -80 0 -80 0 0
155 c0 131 -2 155 -15 155 -13 0 -15 -24 -15 -155 l0 -155 -80 0 -80 0 0 755
0 755 80 0 80 0 0 -150z m1880 0 c0 -127 2 -150 15 -150 13 0 15 23 15 150 l0
150 80 0 80 0 0 -150 c0 -93 4 -150 10 -150 6 0 10 57 10 150 l0 150 80 0 80
0 0 -150 c0 -127 2 -150 15 -150 13 0 15 23 15 150 l0 150 80 0 80 0 0 -150
c0 -127 2 -150 15 -150 13 0 15 23 15 150 l0 150 75 0 75 0 0 -290 c0 -251 2
-290 15 -290 12 0 15 16 15 88 0 48 3 178 7 290 l6 202 79 0 78 0 0 -150 c0
-93 4 -150 10 -150 6 0 10 57 10 150 l0 150 80 0 80 0 0 -150 c0 -127 2 -150
15 -150 13 0 15 23 15 150 l0 150 80 0 80 0 0 -150 c0 -127 2 -150 15 -150 13
0 15 23 15 150 l0 150 80 0 80 0 0 -150 c0 -127 2 -150 15 -150 13 0 15 23 15
150 l0 150 82 0 81 0 -6 -377 c-4 -207 -7 -547 -7 -755 l0 -378 -80 0 -80 0 0
155 c0 97 -4 155 -10 155 -6 0 -10 -58 -10 -155 l0 -155 -80 0 -80 0 0 155 c0
131 -2 155 -15 155 -13 0 -15 -24 -15 -155 l0 -155 -80 0 -80 0 0 155 c0 131
-2 155 -15 155 -13 0 -15 -24 -15 -155 l0 -155 -80 0 -80 0 0 155 c0 131 -2
155 -15 155 -13 0 -15 -24 -15 -155 l0 -155 -73 0 -74 0 -6 212 c-4 116 -7
251 -7 300 0 72 -3 88 -15 88 -13 0 -15 -40 -15 -300 l0 -300 -75 0 -75 0 0
155 c0 131 -2 155 -15 155 -13 0 -15 -24 -15 -155 l0 -155 -80 0 -80 0 0 155
c0 131 -2 155 -15 155 -13 0 -15 -24 -15 -155 l0 -155 -80 0 -80 0 0 155 c0
131 -2 155 -15 155 -13 0 -15 -24 -15 -155 l0 -155 -80 0 -80 0 0 155 c0 97
-4 155 -10 155 -6 0 -10 -58 -10 -155 l0 -155 -80 0 -80 0 0 755 0 755 80 0
80 0 0 -150z m1870 0 c0 -127 2 -150 15 -150 13 0 15 23 15 150 l0 150 80 0
80 0 0 -150 c0 -127 2 -150 15 -150 13 0 15 23 15 150 l0 150 80 0 80 0 0
-150 c0 -127 2 -150 15 -150 13 0 15 23 15 150 l0 150 80 0 80 0 0 -150 c0
-93 4 -150 10 -150 6 0 10 57 10 150 0 143 1 150 20 150 20 0 20 -7 20 -755 0
-748 0 -755 -20 -755 -19 0 -20 7 -20 156 0 120 -3 155 -12 152 -10 -4 -14
-46 -16 -156 l-3 -152 -79 0 -80 0 0 155 c0 97 -4 155 -10 155 -6 0 -10 -58
-10 -155 l0 -155 -80 0 -80 0 0 155 c0 131 -2 155 -15 155 -13 0 -15 -24 -15
-155 l0 -155 -80 0 -80 0 0 155 c0 131 -2 155 -15 155 -13 0 -15 -24 -15 -155
l0 -155 -80 0 -80 0 0 755 0 755 80 0 80 0 0 -150z"/>
</g>
</svg>
