<?xml version="1.0" standalone="no"?>
<!DOCTYPE svg PUBLIC "-//W3C//DTD SVG 20010904//EN"
 "http://www.w3.org/TR/2001/REC-SVG-20010904/DTD/svg10.dtd">
<svg version="1.0" xmlns="http://www.w3.org/2000/svg"
 width="2048.000000pt" height="167.000000pt" viewBox="0 0 2048.000000 167.000000"
 preserveAspectRatio="xMidYMid meet">
<metadata>
Created by potrace 1.15, written by Peter Selinger 2001-2017
</metadata>
<g transform="translate(0.000000,167.000000) scale(0.100000,-0.100000)"
fill="#000000" stroke="none">
<path d="M88 1606 c-17 -12 -18 -61 -18 -775 l0 -761 10175 0 10175 0 0 765 0
765 -24 0 c-13 0 -27 6 -30 13 -5 10 -7 10 -12 0 -8 -18 -155 -18 -173 0 -11
9 -14 9 -18 0 -6 -16 -163 -18 -163 -3 0 6 -7 10 -15 10 -8 0 -15 -4 -15 -10
0 -15 -157 -13 -163 3 -4 9 -7 9 -18 -1 -18 -17 -165 -17 -173 0 -5 10 -7 10
-12 1 -7 -16 -164 -18 -164 -3 0 6 -7 10 -15 10 -8 0 -15 -4 -15 -10 0 -6 -33
-10 -80 -10 -47 0 -80 4 -80 10 0 6 -7 10 -15 10 -8 0 -15 -4 -15 -10 0 -6
-33 -10 -80 -10 -47 0 -80 4 -80 10 0 6 -7 10 -15 10 -8 0 -15 -4 -15 -10 0
-15 -157 -13 -164 3 -5 10 -7 10 -12 0 -7 -16 -164 -18 -164 -3 0 6 -9 10 -20
10 -11 0 -20 -4 -20 -10 0 -6 -32 -10 -75 -10 -43 0 -75 4 -75 10 0 6 -7 10
-15 10 -8 0 -15 -4 -15 -10 0 -6 -33 -10 -80 -10 -47 0 -80 4 -80 10 0 6 -7
10 -15 10 -8 0 -15 -4 -15 -10 0 -15 -157 -13 -164 2 -5 10 -7 11 -12 1 -4 -9
-31 -13 -83 -13 -48 0 -82 5 -90 13 -11 9 -14 9 -18 0 -6 -16 -163 -18 -163
-3 0 6 -7 10 -15 10 -8 0 -15 -4 -15 -10 0 -6 -33 -10 -80 -10 -47 0 -80 4
-80 10 0 6 -7 10 -15 10 -8 0 -15 -4 -15 -10 0 -15 -157 -13 -164 3 -5 9 -7 9
-12 0 -8 -18 -155 -18 -173 0 -11 9 -14 9 -18 0 -6 -16 -163 -18 -163 -3 0 6
-7 10 -15 10 -8 0 -15 -4 -15 -10 0 -6 -33 -10 -80 -10 -47 0 -80 4 -80 10 0
6 -7 10 -15 10 -8 0 -15 -4 -15 -10 0 -15 -157 -13 -164 3 -5 9 -7 9 -12 0 -8
-18 -170 -18 -178 0 -5 9 -7 9 -12 0 -7 -16 -164 -18 -164 -3 0 6 -7 10 -15
10 -8 0 -15 -4 -15 -10 0 -6 -33 -10 -80 -10 -47 0 -80 4 -80 10 0 6 -7 10
-15 10 -8 0 -15 -4 -15 -10 0 -15 -157 -13 -163 2 -4 11 -7 11 -18 0 -18 -17
-165 -17 -173 0 -5 10 -7 10 -12 1 -7 -16 -164 -18 -164 -3 0 6 -7 10 -15 10
-8 0 -15 -4 -15 -10 0 -6 -33 -10 -80 -10 -47 0 -80 4 -80 10 0 6 -7 10 -15
10 -8 0 -15 -4 -15 -10 0 -15 -157 -13 -163 3 -4 10 -7 10 -18 0 -18 -18 -165
-18 -173 -1 -5 10 -7 10 -12 1 -7 -16 -164 -18 -164 -3 0 6 -7 10 -15 10 -8 0
-15 -4 -15 -10 0 -6 -33 -10 -80 -10 -47 0 -80 4 -80 10 0 6 -7 10 -15 10 -8
0 -15 -4 -15 -10 0 -15 -157 -13 -163 3 -4 10 -7 9 -18 -1 -18 -17 -165 -17
-173 1 -5 9 -7 9 -12 0 -7 -16 -164 -18 -164 -3 0 6 -7 10 -15 10 -8 0 -15 -4
-15 -10 0 -6 -33 -10 -80 -10 -47 0 -80 4 -80 10 0 6 -7 10 -15 10 -8 0 -15
-4 -15 -10 0 -6 -33 -10 -80 -10 -47 0 -80 4 -80 10 0 6 -7 10 -15 10 -8 0
-15 -4 -15 -10 0 -15 -157 -13 -164 2 -5 10 -7 10 -12 1 -7 -16 -164 -18 -164
-3 0 6 -7 10 -15 10 -8 0 -15 -4 -15 -10 0 -6 -33 -10 -80 -10 -47 0 -80 4
-80 10 0 6 -7 10 -15 10 -8 0 -15 -4 -15 -10 0 -6 -33 -10 -80 -10 -47 0 -80
4 -80 10 0 6 -7 10 -15 10 -8 0 -15 -4 -15 -10 0 -15 -157 -13 -164 3 -5 9 -7
9 -12 0 -7 -16 -164 -18 -164 -3 0 6 -7 10 -15 10 -8 0 -15 -4 -15 -10 0 -6
-33 -10 -80 -10 -47 0 -80 4 -80 10 0 6 -7 10 -15 10 -8 0 -15 -4 -15 -10 0
-6 -33 -10 -80 -10 -47 0 -80 4 -80 10 0 6 -7 10 -15 10 -8 0 -15 -4 -15 -10
0 -15 -157 -13 -164 3 -5 10 -7 10 -12 0 -8 -18 -155 -18 -173 0 -11 10 -14
10 -18 0 -6 -16 -163 -18 -163 -3 0 6 -7 10 -15 10 -8 0 -15 -4 -15 -10 0 -6
-33 -10 -80 -10 -47 0 -80 4 -80 10 0 6 -7 10 -15 10 -8 0 -15 -4 -15 -10 0
-15 -157 -13 -164 3 -5 10 -7 10 -12 0 -8 -18 -155 -18 -173 0 -11 10 -14 10
-18 0 -6 -16 -163 -18 -163 -3 0 6 -7 10 -15 10 -8 0 -15 -4 -15 -10 0 -6 -33
-10 -80 -10 -47 0 -80 4 -80 10 0 6 -7 10 -15 10 -8 0 -15 -4 -15 -10 0 -15
-157 -13 -164 3 -5 9 -7 9 -12 0 -8 -18 -155 -18 -173 0 -11 10 -14 10 -18 0
-6 -16 -163 -18 -163 -3 0 6 -7 10 -15 10 -8 0 -15 -4 -15 -10 0 -6 -33 -10
-80 -10 -47 0 -80 4 -80 10 0 6 -7 10 -15 10 -8 0 -15 -4 -15 -10 0 -15 -157
-13 -163 3 -4 9 -7 9 -18 0 -18 -18 -165 -18 -173 0 -5 10 -7 10 -12 -1 -7
-15 -164 -17 -164 -2 0 6 -7 10 -15 10 -8 0 -15 -4 -15 -10 0 -6 -33 -10 -80
-10 -47 0 -80 4 -80 10 0 6 -7 10 -15 10 -8 0 -15 -4 -15 -10 0 -15 -157 -13
-163 3 -4 10 -7 9 -18 0 -18 -18 -165 -18 -173 0 -5 10 -7 10 -12 0 -7 -16
-164 -18 -164 -3 0 6 -7 10 -15 10 -8 0 -15 -4 -15 -10 0 -6 -33 -10 -80 -10
-47 0 -80 4 -80 10 0 6 -7 10 -15 10 -8 0 -15 -4 -15 -10 0 -15 -157 -13 -163
2 -4 11 -7 11 -18 1 -18 -18 -165 -18 -173 -1 -5 10 -7 10 -12 1 -7 -16 -164
-18 -164 -3 0 6 -7 10 -15 10 -8 0 -15 -4 -15 -10 0 -6 -33 -10 -80 -10 -47 0
-80 4 -80 10 0 6 -7 10 -15 10 -8 0 -15 -4 -15 -10 0 -6 -33 -10 -80 -10 -47
0 -80 4 -80 10 0 6 -7 10 -15 10 -8 0 -15 -4 -15 -10 0 -15 -157 -13 -164 3
-5 10 -7 10 -12 0 -7 -16 -164 -18 -164 -3 0 6 -7 10 -15 10 -8 0 -15 -4 -15
-10 0 -6 -33 -10 -80 -10 -47 0 -80 4 -80 10 0 6 -7 10 -15 10 -8 0 -15 -4
-15 -10 0 -6 -33 -10 -80 -10 -47 0 -80 4 -80 10 0 6 -7 10 -15 10 -8 0 -15
-4 -15 -10 0 -15 -157 -13 -164 3 -5 10 -7 10 -12 0 -7 -16 -164 -18 -164 -3
0 6 -7 10 -15 10 -8 0 -15 -4 -15 -10 0 -6 -33 -10 -80 -10 -47 0 -80 4 -80
10 0 6 -7 10 -15 10 -8 0 -15 -4 -15 -10 0 -6 -33 -10 -80 -10 -47 0 -80 4
-80 10 0 6 -7 10 -15 10 -8 0 -15 -4 -15 -10 0 -15 -157 -13 -164 3 -5 10 -7
10 -12 -1 -7 -15 -164 -17 -164 -2 0 6 -7 10 -15 10 -8 0 -15 -4 -15 -10 0 -6
-33 -10 -80 -10 -47 0 -80 4 -80 10 0 6 -7 10 -15 10 -8 0 -15 -4 -15 -10 0
-6 -33 -10 -80 -10 -47 0 -80 4 -80 10 0 6 -7 10 -15 10 -8 0 -15 -4 -15 -10
0 -15 -157 -13 -164 3 -5 10 -7 10 -12 0 -4 -9 -31 -13 -83 -13 -48 0 -82 5
-90 13 -11 10 -14 10 -18 0 -6 -16 -163 -18 -163 -3 0 6 -7 10 -15 10 -8 0
-15 -4 -15 -10 0 -6 -33 -10 -80 -10 -47 0 -80 4 -80 10 0 6 -7 10 -15 10 -8
0 -15 -4 -15 -10 0 -15 -157 -13 -164 3 -5 10 -7 10 -12 0 -4 -9 -31 -13 -83
-13 -48 0 -82 5 -90 13 -11 10 -14 10 -18 0 -6 -16 -163 -18 -163 -3 0 6 -7
10 -15 10 -8 0 -15 -4 -15 -10 0 -6 -33 -10 -80 -10 -47 0 -80 4 -80 10 0 6
-7 10 -15 10 -8 0 -15 -4 -15 -10 0 -15 -157 -13 -164 3 -5 10 -7 10 -12 0 -8
-18 -155 -18 -173 0 -11 10 -14 10 -18 0 -6 -16 -163 -18 -163 -3 0 6 -7 10
-15 10 -8 0 -15 -4 -15 -10 0 -6 -33 -10 -80 -10 -47 0 -80 4 -80 10 0 6 -7
10 -15 10 -8 0 -15 -4 -15 -10 0 -15 -157 -13 -163 3 -4 10 -7 10 -18 0 -8 -8
-42 -13 -90 -13 -52 0 -79 4 -83 13 -5 10 -7 10 -12 0 -7 -16 -164 -18 -164
-3 0 6 -7 10 -15 10 -8 0 -15 -4 -15 -10 0 -6 -33 -10 -80 -10 -47 0 -80 4
-80 10 0 6 -7 10 -15 10 -8 0 -15 -4 -15 -10 0 -15 -157 -13 -163 3 -4 10 -7
10 -18 0 -8 -8 -42 -13 -90 -13 -52 0 -79 4 -83 13 -5 10 -7 10 -12 0 -7 -16
-164 -18 -164 -3 0 6 -7 10 -15 10 -8 0 -15 -4 -15 -10 0 -6 -33 -10 -80 -10
-47 0 -80 4 -80 10 0 6 -7 10 -15 10 -8 0 -15 -4 -15 -10 0 -15 -157 -13 -163
3 -4 10 -7 10 -18 0 -8 -8 -42 -13 -90 -13 -52 0 -79 4 -83 13 -5 10 -7 10
-12 0 -7 -16 -164 -18 -164 -3 0 6 -7 10 -15 10 -8 0 -15 -4 -15 -10 0 -6 -33
-10 -80 -10 -47 0 -80 4 -80 10 0 6 -7 10 -15 10 -8 0 -15 -4 -15 -10 0 -15
-143 -13 -159 3 -11 10 -14 10 -18 0 -6 -16 -163 -18 -163 -3 0 6 -7 10 -15
10 -8 0 -15 -4 -15 -10 0 -6 -33 -10 -80 -10 -47 0 -80 4 -80 10 0 13 -11 12
-32 -4z m17 -316 c13 0 15 25 15 150 l0 150 80 0 80 0 0 -150 c0 -127 2 -150
15 -150 13 0 15 23 15 150 l0 150 80 0 80 0 0 -150 c0 -127 2 -150 15 -150 13
0 15 23 15 150 l0 150 75 0 75 0 0 -150 c0 -127 2 -150 15 -150 13 0 15 23 15
150 l0 150 80 0 80 0 0 -755 0 -755 -80 0 -80 0 0 155 c0 131 -2 155 -15 155
-13 0 -15 -24 -15 -155 l0 -155 -75 0 -74 0 -3 152 c-2 110 -6 152 -15 156
-10 3 -13 -32 -13 -152 l0 -156 -80 0 -80 0 0 155 c0 131 -2 155 -15 155 -13
0 -15 -24 -15 -155 l0 -155 -80 0 -80 0 0 155 c0 130 -2 155 -15 155 -12 0
-15 -27 -18 -157 -1 -87 -3 184 -3 602 0 418 2 691 3 608 3 -127 6 -153 18
-153z m925 150 c0 -93 4 -150 10 -150 6 0 10 57 10 150 l0 150 80 0 80 0 0
-150 c0 -127 2 -150 15 -150 13 0 15 23 15 150 l0 150 80 0 80 0 0 -150 c0
-127 2 -150 15 -150 13 0 15 23 15 150 l0 150 80 0 80 0 0 -150 c0 -127 2
-150 15 -150 13 0 15 23 15 150 l0 150 80 0 80 0 0 -290 c0 -187 4 -290 10
-290 6 0 10 103 10 290 l0 290 80 0 80 0 0 -150 c0 -127 2 -150 15 -150 13 0
15 23 15 150 l0 150 80 0 80 0 0 -150 c0 -127 2 -150 15 -150 13 0 15 23 15
150 l0 150 80 0 80 0 0 -150 c0 -127 2 -150 15 -150 13 0 15 23 15 150 l0 150
80 0 80 0 0 -150 c0 -93 4 -150 10 -150 6 0 10 57 10 150 l0 150 80 0 80 0 0
-755 0 -755 -80 0 -80 0 0 155 c0 97 -4 155 -10 155 -6 0 -10 -58 -10 -155 l0
-155 -80 0 -80 0 0 155 c0 131 -2 155 -15 155 -13 0 -15 -24 -15 -155 l0 -155
-80 0 -80 0 0 155 c0 131 -2 155 -15 155 -13 0 -15 -24 -15 -155 l0 -155 -80
0 -80 0 0 155 c0 131 -2 155 -15 155 -13 0 -15 -24 -15 -155 l0 -155 -80 0
-80 0 0 300 c0 193 -4 300 -10 300 -6 0 -10 -107 -10 -300 l0 -300 -80 0 -80
0 0 155 c0 131 -2 155 -15 155 -13 0 -15 -24 -15 -155 l0 -155 -80 0 -80 0 0
155 c0 131 -2 155 -15 155 -13 0 -15 -24 -15 -155 l0 -155 -80 0 -80 0 0 155
c0 131 -2 155 -15 155 -13 0 -15 -24 -15 -155 l0 -155 -80 0 -80 0 0 155 c0
97 -4 155 -10 155 -6 0 -10 -58 -10 -155 l0 -155 -80 0 -80 0 0 755 0 755 80
0 80 0 0 -150z m1870 0 c0 -127 2 -150 15 -150 13 0 15 23 15 150 l0 150 80 0
80 0 0 -150 c0 -127 2 -150 15 -150 13 0 15 23 15 150 l0 150 80 0 80 0 0
-150 c0 -127 2 -150 15 -150 13 0 15 23 15 150 l0 150 80 0 80 0 0 -150 c0
-93 4 -150 10 -150 6 0 10 57 10 150 l0 150 80 0 80 0 0 -290 c0 -251 2 -290
15 -290 13 0 15 39 15 290 l0 290 80 0 80 0 0 -150 c0 -127 2 -150 15 -150 13
0 15 23 15 150 l0 150 80 0 80 0 0 -150 c0 -127 2 -150 15 -150 13 0 15 23 15
150 l0 150 80 0 80 0 0 -150 c0 -93 4 -150 10 -150 6 0 10 57 10 150 l0 150
80 0 80 0 0 -150 c0 -127 2 -150 15 -150 13 0 15 23 15 150 l0 150 80 0 80 0
0 -755 0 -755 -80 0 -80 0 0 155 c0 131 -2 155 -15 155 -13 0 -15 -24 -15
-155 l0 -155 -80 0 -80 0 0 155 c0 131 -2 155 -15 155 -13 0 -15 -24 -15 -155
l0 -155 -80 0 -80 0 0 155 c0 97 -4 155 -10 155 -6 0 -10 -58 -10 -155 l0
-155 -80 0 -80 0 0 155 c0 131 -2 155 -15 155 -13 0 -15 -24 -15 -155 l0 -155
-80 0 -80 0 0 300 c0 260 -2 300 -15 300 -13 0 -15 -40 -15 -300 l0 -300 -80
0 -80 0 0 155 c0 131 -2 155 -15 155 -13 0 -15 -24 -15 -155 l0 -155 -80 0
-80 0 0 155 c0 97 -4 155 -10 155 -6 0 -10 -58 -10 -155 l0 -155 -80 0 -80 0
0 155 c0 131 -2 155 -15 155 -13 0 -15 -24 -15 -155 l0 -155 -80 0 -80 0 0
155 c0 131 -2 155 -15 155 -13 0 -15 -24 -15 -155 l0 -155 -80 0 -80 0 0 325
0 325 60 0 c47 0 60 3 60 15 0 9 -9 15 -25 15 -25 0 -25 1 -25 91 l0 91 -35
-6 -35 -7 0 331 0 330 80 0 80 0 0 -150z m1880 0 c0 -127 2 -150 15 -150 13 0
15 23 15 150 l0 150 80 0 80 0 0 -150 c0 -93 4 -150 10 -150 6 0 10 57 10 150
l0 150 80 0 80 0 0 -150 c0 -127 2 -150 15 -150 13 0 15 23 15 150 l0 150 80
0 80 0 0 -150 c0 -127 2 -150 15 -150 13 0 15 23 15 150 l0 150 80 0 80 0 0
-290 c0 -251 2 -290 15 -290 13 0 15 39 15 290 l0 290 80 0 80 0 0 -150 c0
-93 4 -150 10 -150 6 0 10 57 10 150 l0 150 80 0 80 0 0 -150 c0 -127 2 -150
15 -150 13 0 15 23 15 150 l0 150 80 0 80 0 0 -150 c0 -127 2 -150 15 -150 13
0 15 23 15 150 l0 150 80 0 80 0 0 -150 c0 -127 2 -150 15 -150 13 0 15 23 15
150 l0 150 82 0 81 0 -6 -377 c-4 -207 -7 -547 -7 -755 l0 -378 -80 0 -80 0 0
155 c0 97 -4 155 -10 155 -6 0 -10 -58 -10 -155 l0 -155 -80 0 -80 0 0 155 c0
131 -2 155 -15 155 -13 0 -15 -24 -15 -155 l0 -155 -80 0 -80 0 0 155 c0 131
-2 155 -15 155 -13 0 -15 -24 -15 -155 l0 -155 -80 0 -80 0 0 155 c0 131 -2
155 -15 155 -13 0 -15 -24 -15 -155 l0 -155 -80 0 -80 0 0 300 c0 193 -4 300
-10 300 -6 0 -10 -107 -10 -300 l0 -300 -80 0 -80 0 0 155 c0 131 -2 155 -15
155 -13 0 -15 -24 -15 -155 l0 -155 -80 0 -80 0 0 155 c0 131 -2 155 -15 155
-13 0 -15 -24 -15 -155 l0 -155 -80 0 -80 0 0 155 c0 131 -2 155 -15 155 -13
0 -15 -24 -15 -155 l0 -155 -80 0 -80 0 0 155 c0 97 -4 155 -10 155 -6 0 -10
-58 -10 -155 l0 -155 -80 0 -80 0 0 325 0 325 65 0 c51 0 65 3 65 15 0 11 -11
15 -41 15 l-42 0 42 45 c70 76 48 143 -44 133 l-45 -6 0 329 0 329 80 0 80 0
0 -150z m1870 0 c0 -127 2 -150 15 -150 13 0 15 23 15 150 l0 150 80 0 80 0 0
-150 c0 -127 2 -150 15 -150 13 0 15 23 15 150 l0 150 80 0 80 0 0 -150 c0
-127 2 -150 15 -150 13 0 15 23 15 150 l0 150 80 0 80 0 0 -150 c0 -93 4 -150
10 -150 6 0 10 57 10 150 l0 150 80 0 80 0 0 -290 c0 -251 2 -290 15 -290 13
0 15 39 15 290 l0 290 80 0 80 0 0 -150 c0 -127 2 -150 15 -150 13 0 15 23 15
150 l0 150 80 0 80 0 0 -150 c0 -127 2 -150 15 -150 13 0 15 23 15 150 l0 150
80 0 80 0 0 -150 c0 -93 4 -150 10 -150 6 0 10 57 10 150 l0 150 80 0 80 0 0
-150 c0 -127 2 -150 15 -150 13 0 15 23 15 150 l0 150 80 0 80 0 0 -755 0
-755 -80 0 -80 0 0 155 c0 131 -2 155 -15 155 -13 0 -15 -24 -15 -155 l0 -155
-80 0 -80 0 0 155 c0 97 -4 155 -10 155 -6 0 -10 -58 -10 -155 l0 -155 -80 0
-80 0 0 155 c0 131 -2 155 -15 155 -13 0 -15 -24 -15 -155 l0 -155 -80 0 -80
0 0 155 c0 131 -2 155 -15 155 -13 0 -15 -24 -15 -155 l0 -155 -80 0 -80 0 0
300 c0 260 -2 300 -15 300 -13 0 -15 -40 -15 -300 l0 -300 -80 0 -80 0 0 155
c0 97 -4 155 -10 155 -6 0 -10 -58 -10 -155 l0 -155 -80 0 -79 0 -3 152 c-2
110 -6 152 -15 156 -10 3 -13 -32 -13 -152 l0 -156 -80 0 -80 0 0 155 c0 131
-2 155 -15 155 -13 0 -15 -24 -15 -155 l0 -155 -80 0 -80 0 0 155 c0 131 -2
155 -15 155 -13 0 -15 -24 -15 -155 l0 -155 -80 0 -80 0 0 328 0 327 49 -3
c39 -3 53 0 70 17 25 25 27 63 6 81 -11 9 -13 16 -5 24 18 18 12 64 -10 76
-31 17 -94 9 -98 -12 -3 -14 3 -16 30 -12 39 6 63 -8 55 -30 -4 -10 -18 -16
-37 -16 -40 0 -39 -23 3 -35 42 -13 51 -51 13 -61 -14 -3 -37 -3 -51 0 l-25 6
0 410 0 410 80 0 80 0 0 -150z m1880 0 c0 -127 2 -150 15 -150 13 0 15 23 15
150 l0 150 80 0 80 0 0 -150 c0 -93 4 -150 10 -150 6 0 10 57 10 150 l0 150
80 0 80 0 0 -150 c0 -127 2 -150 15 -150 13 0 15 23 15 150 l0 150 80 0 80 0
0 -150 c0 -127 2 -150 15 -150 13 0 15 23 15 150 l0 150 80 0 80 0 0 -290 c0
-251 2 -290 15 -290 13 0 15 39 15 290 l0 290 80 0 80 0 0 -150 c0 -93 4 -150
10 -150 6 0 10 57 10 150 l0 150 80 0 80 0 0 -150 c0 -127 2 -150 15 -150 13
0 15 23 15 150 l0 150 80 0 80 0 0 -150 c0 -127 2 -150 15 -150 13 0 15 23 15
150 l0 150 80 0 80 0 0 -150 c0 -127 2 -150 15 -150 13 0 15 23 15 150 l0 150
80 0 80 0 0 -755 0 -755 -80 0 -80 0 0 155 c0 131 -2 155 -15 155 -13 0 -15
-24 -15 -155 l0 -155 -80 0 -80 0 0 155 c0 131 -2 155 -15 155 -13 0 -15 -24
-15 -155 l0 -155 -80 0 -80 0 0 155 c0 131 -2 155 -15 155 -13 0 -15 -24 -15
-155 l0 -155 -80 0 -80 0 0 155 c0 97 -4 155 -10 155 -6 0 -10 -58 -10 -155
l0 -155 -80 0 -80 0 0 300 c0 260 -2 300 -15 300 -13 0 -15 -40 -15 -300 l0
-300 -80 0 -80 0 0 155 c0 131 -2 155 -15 155 -13 0 -15 -24 -15 -155 l0 -155
-80 0 -80 0 0 155 c0 131 -2 155 -15 155 -13 0 -15 -24 -15 -155 l0 -155 -80
0 -80 0 0 155 c0 97 -4 155 -10 155 -6 0 -10 -58 -10 -155 l0 -155 -80 0 -80
0 0 155 c0 131 -2 155 -15 155 -13 0 -15 -24 -15 -155 l0 -155 -80 0 -80 0 0
350 0 350 45 0 c41 0 45 -2 45 -25 0 -16 6 -25 15 -25 9 0 15 9 15 25 0 16 6
25 15 25 8 0 15 7 15 15 0 8 -7 15 -15 15 -12 0 -15 14 -15 65 0 57 -2 65 -19
65 -12 0 -33 -23 -60 -62 l-41 -63 0 388 0 387 80 0 80 0 0 -150z m1880 0 c0
-93 4 -150 10 -150 6 0 10 57 10 150 l0 150 80 0 80 0 0 -150 c0 -127 2 -150
15 -150 13 0 15 23 15 150 l0 150 80 0 80 0 0 -150 c0 -127 2 -150 15 -150 13
0 15 23 15 150 l0 150 80 0 80 0 0 -150 c0 -127 2 -150 15 -150 13 0 15 23 15
150 l0 150 80 0 80 0 0 -290 c0 -187 4 -290 10 -290 6 0 10 103 10 290 l0 290
80 0 80 0 0 -150 c0 -127 2 -150 15 -150 13 0 15 23 15 150 l0 150 80 0 80 0
0 -150 c0 -127 2 -150 15 -150 13 0 15 23 15 150 l0 150 80 0 80 0 0 -150 c0
-127 2 -150 15 -150 13 0 15 23 15 150 l0 150 80 0 80 0 0 -150 c0 -93 4 -150
10 -150 6 0 10 57 10 150 l0 150 80 0 80 0 0 -755 0 -755 -80 0 -80 0 0 155
c0 131 -2 155 -15 155 -13 0 -15 -24 -15 -155 l0 -155 -80 0 -80 0 0 155 c0
97 -4 155 -10 155 -6 0 -10 -58 -10 -155 l0 -155 -80 0 -80 0 0 155 c0 131 -2
155 -15 155 -13 0 -15 -24 -15 -155 l0 -155 -80 0 -80 0 0 155 c0 131 -2 155
-15 155 -13 0 -15 -24 -15 -155 l0 -155 -80 0 -80 0 0 300 c0 260 -2 300 -15
300 -13 0 -15 -40 -15 -300 l0 -300 -80 0 -80 0 0 155 c0 97 -4 155 -10 155
-6 0 -10 -58 -10 -155 l0 -155 -80 0 -80 0 0 155 c0 131 -2 155 -15 155 -13 0
-15 -24 -15 -155 l0 -155 -80 0 -80 0 0 155 c0 131 -2 155 -15 155 -13 0 -15
-24 -15 -155 l0 -155 -80 0 -80 0 0 155 c0 131 -2 155 -15 155 -13 0 -15 -24
-15 -155 l0 -155 -81 0 -81 0 3 328 4 327 38 -4 c54 -5 87 20 87 66 0 45 -24
73 -62 73 -21 0 -28 5 -28 20 0 17 7 20 40 20 29 0 40 4 40 15 0 12 -13 15
-55 15 l-55 0 0 325 0 325 80 0 80 0 0 -150z m1870 0 c0 -127 2 -150 15 -150
13 0 15 23 15 150 l0 150 80 0 80 0 0 -150 c0 -127 2 -150 15 -150 13 0 15 23
15 150 l0 150 80 0 80 0 0 -150 c0 -93 4 -150 10 -150 6 0 10 57 10 150 l0
150 80 0 80 0 0 -150 c0 -127 2 -150 15 -150 13 0 15 23 15 150 l0 150 80 0
80 0 0 -290 c0 -251 2 -290 15 -290 13 0 15 39 15 290 l0 290 80 0 80 0 0
-150 c0 -127 2 -150 15 -150 13 0 15 23 15 150 l0 150 80 0 80 0 0 -150 c0
-93 4 -150 10 -150 6 0 10 57 10 150 l0 150 80 0 80 0 0 -150 c0 -127 2 -150
15 -150 13 0 15 23 15 150 l0 150 80 0 80 0 0 -150 c0 -127 2 -150 15 -150 13
0 15 23 15 150 l0 150 80 0 80 0 0 -755 0 -755 -80 0 -80 0 0 155 c0 131 -2
155 -15 155 -13 0 -15 -24 -15 -155 l0 -155 -80 0 -80 0 0 155 c0 131 -2 155
-15 155 -13 0 -15 -24 -15 -155 l0 -155 -80 0 -80 0 0 155 c0 131 -2 155 -15
155 -13 0 -15 -24 -15 -155 l0 -155 -80 0 -80 0 0 155 c0 97 -4 155 -10 155
-6 0 -10 -58 -10 -155 l0 -155 -80 0 -80 0 0 300 c0 260 -2 300 -15 300 -13 0
-15 -40 -15 -300 l0 -300 -80 0 -80 0 0 155 c0 131 -2 155 -15 155 -13 0 -15
-24 -15 -155 l0 -155 -80 0 -80 0 0 155 c0 131 -2 155 -15 155 -13 0 -15 -24
-15 -155 l0 -155 -80 0 -80 0 0 155 c0 97 -4 155 -10 155 -6 0 -10 -58 -10
-155 l0 -155 -80 0 -80 0 0 155 c0 131 -2 155 -15 155 -13 0 -15 -24 -15 -155
l0 -155 -80 0 -80 0 1 353 c0 193 3 345 6 337 15 -42 79 -54 113 -20 12 12 20
33 20 55 0 42 -34 70 -80 63 -29 -4 -29 -4 -16 16 10 15 24 21 50 20 29 -1 36
2 34 15 -2 11 -16 17 -40 19 -29 3 -43 -2 -63 -22 l-25 -25 0 349 0 350 80 0
80 0 0 -150z m1880 0 c0 -93 4 -150 10 -150 6 0 10 57 10 150 l0 150 80 0 80
0 0 -150 c0 -127 2 -150 15 -150 13 0 15 23 15 150 l0 150 80 0 80 0 0 -150
c0 -127 2 -150 15 -150 13 0 15 23 15 150 l0 150 80 0 80 0 0 -150 c0 -127 2
-150 15 -150 13 0 15 23 15 150 l0 150 80 0 80 0 0 -290 c0 -187 4 -290 10
-290 6 0 10 103 10 290 l0 290 80 0 80 0 0 -150 c0 -127 2 -150 15 -150 13 0
15 23 15 150 l0 150 80 0 80 0 0 -150 c0 -127 2 -150 15 -150 13 0 15 23 15
150 l0 150 80 0 80 0 0 -150 c0 -127 2 -150 15 -150 13 0 15 23 15 150 l0 150
80 0 80 0 0 -150 c0 -93 4 -150 10 -150 6 0 10 57 10 150 l0 150 80 0 80 0 0
-755 0 -755 -80 0 -80 0 0 155 c0 97 -4 155 -10 155 -6 0 -10 -58 -10 -155 l0
-155 -80 0 -80 0 0 155 c0 131 -2 155 -15 155 -13 0 -15 -24 -15 -155 l0 -155
-80 0 -80 0 0 155 c0 131 -2 155 -15 155 -13 0 -15 -24 -15 -155 l0 -155 -80
0 -80 0 0 155 c0 131 -2 155 -15 155 -13 0 -15 -24 -15 -155 l0 -155 -80 0
-80 0 0 300 c0 193 -4 300 -10 300 -6 0 -10 -107 -10 -300 l0 -300 -80 0 -80
0 0 155 c0 131 -2 155 -15 155 -13 0 -15 -24 -15 -155 l0 -155 -80 0 -80 0 0
155 c0 131 -2 155 -15 155 -13 0 -15 -24 -15 -155 l0 -155 -80 0 -80 0 0 155
c0 131 -2 155 -15 155 -13 0 -15 -24 -15 -155 l0 -155 -80 0 -80 0 0 155 c0
97 -4 155 -10 155 -6 0 -10 -58 -10 -155 l0 -155 -80 0 -80 0 0 415 0 415 36
0 c30 0 35 -3 29 -17 -28 -69 -55 -145 -55 -154 0 -6 7 -9 16 -7 16 3 84 156
84 190 0 15 -9 18 -55 18 -41 0 -56 -4 -64 -17 -6 -10 -11 -13 -11 -6 0 6 5
15 10 18 6 4 10 125 10 331 l0 324 80 0 80 0 0 -150z m1870 0 c0 -127 2 -150
15 -150 13 0 15 23 15 150 l0 150 80 0 80 0 0 -150 c0 -127 2 -150 15 -150 13
0 15 23 15 150 l0 150 80 0 80 0 0 -150 c0 -93 4 -150 10 -150 6 0 10 57 10
150 l0 150 85 0 85 0 0 -150 c0 -93 4 -150 10 -150 6 0 10 57 10 150 l0 150
80 0 80 0 0 -290 c0 -251 2 -290 15 -290 13 0 15 39 15 290 l0 290 80 0 80 0
0 -150 c0 -127 2 -150 15 -150 13 0 15 23 15 150 l0 150 80 0 80 0 0 -150 c0
-127 2 -150 15 -150 13 0 15 23 15 150 l0 150 80 0 80 0 0 -150 c0 -93 4 -150
10 -150 6 0 10 57 10 150 l0 150 80 0 80 0 0 -150 c0 -127 2 -150 15 -150 13
0 15 23 15 150 l0 150 80 0 80 0 0 -755 0 -755 -80 0 -80 0 0 155 c0 131 -2
155 -15 155 -13 0 -15 -24 -15 -155 l0 -155 -80 0 -80 0 0 155 c0 131 -2 155
-15 155 -13 0 -15 -24 -15 -155 l0 -155 -80 0 -80 0 0 155 c0 97 -4 155 -10
155 -6 0 -10 -58 -10 -155 l0 -155 -80 0 -80 0 0 155 c0 131 -2 155 -15 155
-13 0 -15 -24 -15 -155 l0 -155 -80 0 -80 0 0 300 c0 260 -2 300 -15 300 -13
0 -15 -40 -15 -300 l0 -300 -80 0 -80 0 0 155 c0 131 -2 155 -15 155 -13 0
-15 -24 -15 -155 l0 -155 -80 0 -80 0 0 155 c0 97 -4 155 -10 155 -6 0 -10
-58 -10 -155 l0 -155 -80 0 -80 0 0 155 c0 131 -2 155 -15 155 -13 0 -15 -24
-15 -155 l0 -155 -80 0 -80 0 0 155 c0 131 -2 155 -15 155 -13 0 -15 -24 -15
-155 l0 -155 -80 0 -80 0 1 353 c0 217 4 343 9 330 18 -44 105 -45 130 0 14
25 13 30 -2 57 -10 17 -13 32 -7 35 17 11 10 64 -10 75 -29 15 -77 12 -95 -6
-17 -17 -21 -54 -8 -70 5 -5 3 -20 -4 -34 -12 -21 -14 36 -14 373 l0 397 80 0
80 0 0 -150z m1880 0 c0 -127 2 -150 15 -150 13 0 15 23 15 150 l0 150 80 0
80 0 0 -150 c0 -93 4 -150 10 -150 6 0 10 57 10 150 l0 150 80 0 80 0 0 -150
c0 -127 2 -150 15 -150 13 0 15 23 15 150 l0 150 80 0 80 0 0 -150 c0 -127 2
-150 15 -150 13 0 15 23 15 150 l0 150 75 0 75 0 0 -290 c0 -251 2 -290 15
-290 12 0 15 16 15 88 0 48 3 178 7 290 l6 202 79 0 78 0 0 -150 c0 -93 4
-150 10 -150 6 0 10 57 10 150 l0 150 80 0 80 0 0 -150 c0 -127 2 -150 15
-150 13 0 15 23 15 150 l0 150 80 0 80 0 0 -150 c0 -127 2 -150 15 -150 13 0
15 23 15 150 l0 150 80 0 80 0 0 -150 c0 -127 2 -150 15 -150 13 0 15 23 15
150 l0 150 82 0 81 0 -6 -377 c-4 -207 -7 -547 -7 -755 l0 -378 -80 0 -80 0 0
155 c0 97 -4 155 -10 155 -6 0 -10 -58 -10 -155 l0 -155 -80 0 -80 0 0 155 c0
131 -2 155 -15 155 -13 0 -15 -24 -15 -155 l0 -155 -80 0 -80 0 0 155 c0 131
-2 155 -15 155 -13 0 -15 -24 -15 -155 l0 -155 -80 0 -80 0 0 155 c0 131 -2
155 -15 155 -13 0 -15 -24 -15 -155 l0 -155 -73 0 -74 0 -6 212 c-4 116 -7
251 -7 300 0 72 -3 88 -15 88 -13 0 -15 -40 -15 -300 l0 -300 -75 0 -75 0 0
155 c0 131 -2 155 -15 155 -13 0 -15 -24 -15 -155 l0 -155 -80 0 -80 0 0 155
c0 131 -2 155 -15 155 -13 0 -15 -24 -15 -155 l0 -155 -80 0 -80 0 0 155 c0
131 -2 155 -15 155 -13 0 -15 -24 -15 -155 l0 -155 -80 0 -80 0 0 155 c0 97
-4 155 -10 155 -6 0 -10 -58 -10 -155 l0 -155 -80 0 -80 0 0 377 c0 373 0 376
20 358 13 -11 30 -16 50 -13 19 3 30 0 30 -8 0 -22 -29 -37 -61 -30 -25 5 -30
3 -27 -12 4 -19 37 -27 74 -18 52 13 73 129 33 180 -24 31 -72 35 -101 9 -17
-16 -18 -5 -18 325 l0 342 80 0 80 0 0 -150z m1870 0 c0 -127 2 -150 15 -150
13 0 15 23 15 150 l0 150 80 0 80 0 0 -150 c0 -127 2 -150 15 -150 13 0 15 23
15 150 l0 150 80 0 80 0 0 -150 c0 -127 2 -150 15 -150 13 0 15 23 15 150 l0
150 80 0 80 0 0 -150 c0 -93 4 -150 10 -150 6 0 10 57 10 150 0 143 1 150 20
150 20 0 20 -7 20 -755 0 -748 0 -755 -20 -755 -19 0 -20 7 -20 156 0 120 -3
155 -12 152 -10 -4 -14 -46 -16 -156 l-3 -152 -79 0 -80 0 0 155 c0 97 -4 155
-10 155 -6 0 -10 -58 -10 -155 l0 -155 -80 0 -80 0 0 155 c0 131 -2 155 -15
155 -13 0 -15 -24 -15 -155 l0 -155 -80 0 -80 0 0 155 c0 131 -2 155 -15 155
-13 0 -15 -24 -15 -155 l0 -155 -80 0 -80 0 0 325 0 325 60 0 c47 0 60 3 60
15 0 9 -9 15 -25 15 -25 0 -25 1 -25 91 l0 91 -35 -6 -35 -7 0 331 0 330 80 0
80 0 0 -150z"/>
<path d="M915 926 c-23 -17 -33 -113 -15 -156 21 -51 96 -54 118 -5 24 52 11
145 -22 167 -18 12 -61 9 -81 -6z"/>
<path d="M2914 919 c-14 -16 -19 -36 -19 -84 0 -76 20 -105 71 -105 45 0 69
37 69 105 0 68 -24 105 -69 105 -21 0 -40 -8 -52 -21z"/>
<path d="M3083 913 c-11 -16 -17 -45 -17 -78 0 -69 23 -105 68 -105 51 0 71
29 71 105 0 76 -20 105 -71 105 -25 0 -38 -7 -51 -27z"/>
<path d="M4814 919 c-14 -16 -19 -36 -19 -84 0 -76 20 -105 71 -105 46 0 64
29 64 105 0 76 -18 105 -64 105 -21 0 -40 -8 -52 -21z"/>
<path d="M4984 919 c-14 -16 -19 -36 -19 -84 0 -76 20 -105 71 -105 45 0 69
37 69 105 0 68 -24 105 -69 105 -21 0 -40 -8 -52 -21z"/>
<path d="M6684 919 c-14 -16 -19 -36 -19 -84 0 -76 20 -105 71 -105 46 0 64
29 64 105 0 76 -18 105 -64 105 -21 0 -40 -8 -52 -21z"/>
<path d="M6854 919 c-14 -16 -19 -36 -19 -84 0 -76 20 -105 71 -105 45 0 69
37 69 105 0 68 -24 105 -69 105 -21 0 -40 -8 -52 -21z"/>
<path d="M8570 920 c-16 -16 -20 -33 -20 -85 0 -75 20 -105 69 -105 44 0 71
40 71 105 0 38 -6 60 -21 79 -25 32 -70 35 -99 6z"/>
<path d="M8741 914 c-15 -19 -21 -41 -21 -79 0 -87 58 -133 116 -91 16 12 19
27 19 91 0 64 -3 79 -19 91 -31 23 -72 17 -95 -12z"/>
<path d="M10435 926 c-23 -17 -33 -113 -15 -156 21 -51 96 -54 118 -5 24 52
11 145 -22 167 -18 12 -61 9 -81 -6z"/>
<path d="M10614 932 c-21 -14 -34 -51 -34 -97 0 -72 22 -105 73 -105 47 0 67
31 67 105 0 52 -4 69 -20 85 -20 20 -65 26 -86 12z"/>
<path d="M12315 926 c-22 -16 -33 -116 -16 -158 19 -49 98 -50 119 -3 24 52
11 145 -22 167 -18 12 -61 9 -81 -6z"/>
<path d="M12484 919 c-14 -16 -19 -36 -19 -84 0 -73 20 -105 67 -105 48 0 68
30 68 105 0 52 -4 69 -20 85 -26 26 -72 26 -96 -1z"/>
<path d="M14175 926 c-15 -11 -20 -30 -23 -84 -4 -61 -1 -73 17 -91 54 -54
121 -7 121 84 0 87 -58 133 -115 91z"/>
<path d="M14341 914 c-15 -19 -21 -41 -21 -79 0 -65 27 -105 71 -105 49 0 69
30 69 105 0 52 -4 69 -20 85 -29 29 -74 26 -99 -6z"/>
<path d="M16070 920 c-16 -16 -20 -33 -20 -85 0 -52 4 -69 20 -85 29 -29 74
-26 99 6 34 43 26 150 -13 176 -21 14 -66 8 -86 -12z"/>
<path d="M16254 932 c-21 -14 -34 -51 -34 -97 0 -46 13 -83 34 -97 21 -14 66
-8 86 12 29 29 29 137 0 168 -20 22 -64 29 -86 14z"/>
<path d="M17944 919 c-14 -16 -19 -36 -19 -84 0 -73 20 -105 67 -105 48 0 68
30 68 105 0 52 -4 69 -20 85 -26 26 -72 26 -96 -1z"/>
<path d="M18110 908 c-11 -19 -20 -51 -20 -73 0 -22 9 -54 20 -72 16 -27 26
-33 55 -33 46 0 70 35 70 105 0 70 -24 105 -70 105 -29 0 -39 -6 -55 -32z"/>
<path d="M19794 919 c-14 -16 -19 -36 -19 -84 0 -76 20 -105 71 -105 45 0 69
37 69 105 0 68 -24 105 -69 105 -21 0 -40 -8 -52 -21z"/>
<path d="M19963 913 c-11 -16 -17 -45 -17 -78 0 -69 23 -105 68 -105 51 0 71
29 71 105 0 76 -20 105 -71 105 -25 0 -38 -7 -51 -27z"/>
<path d="M20140 920 c-16 -16 -20 -33 -20 -85 0 -75 20 -105 69 -105 44 0 71
40 71 105 0 38 -6 60 -21 79 -25 32 -70 35 -99 6z"/>
</g>
</svg>
